<svg width="39" height="38" viewBox="0 0 39 38" fill="none" xmlns="http://www.w3.org/2000/svg">
<path fill-rule="evenodd" clip-rule="evenodd" d="M19.5 1.75C9.97309 1.75 2.25 9.47309 2.25 19C2.25 28.5269 9.97309 36.25 19.5 36.25C29.0269 36.25 36.75 28.5269 36.75 19C36.75 9.47309 29.0269 1.75 19.5 1.75ZM0.75 19C0.75 8.64466 9.14466 0.25 19.5 0.25C29.8553 0.25 38.25 8.64466 38.25 19C38.25 29.3553 29.8553 37.75 19.5 37.75C9.14466 37.75 0.75 29.3553 0.75 19ZM19.5 15.25C19.9142 15.25 20.25 15.5858 20.25 16V27C20.25 27.4142 19.9142 27.75 19.5 27.75C19.0858 27.75 18.75 27.4142 18.75 27V16C18.75 15.5858 19.0858 15.25 19.5 15.25ZM19.5 12C20.0523 12 20.5 11.5523 20.5 11C20.5 10.4477 20.0523 10 19.5 10C18.9477 10 18.5 10.4477 18.5 11C18.5 11.5523 18.9477 12 19.5 12Z" fill="white"/>
</svg>
