<svg width="70" height="70" viewBox="0 0 70 70" fill="none" xmlns="http://www.w3.org/2000/svg">
<path d="M17.5541 35.5L10.5631 22L17.5541 8.5L32.4459 8.5L39.4369 22L32.4459 35.5L17.5541 35.5Z" stroke="white"/>
<path d="M17.5541 62.5L10.5631 49L17.5541 35.5L32.4459 35.5L39.4369 49L32.4459 62.5L17.5541 62.5Z" stroke="white"/>
<path d="M39.5541 48.5L32.5631 35L39.5541 21.5L54.4459 21.5L61.4369 35L54.4459 48.5L39.5541 48.5Z" stroke="white"/>
<path d="M37 35L41.8333 26L52.1667 26L57 35L52.1667 44L41.8333 44L37 35Z" fill="#1D7EEA"/>
<path d="M46 21.5V16L42 12H34" stroke="white"/>
<path d="M46 49V55.5L42 59.5H34" stroke="white"/>
</svg>
